<?xml version="1.0" encoding="UTF-8" standalone="no"?>
<!-- Created with Inkscape (http://www.inkscape.org/) -->

<svg
   width="210mm"
   height="210mm"
   viewBox="0 0 210 210"
   version="1.1"
   id="svg1"
   xml:space="preserve"
   inkscape:version="1.4 (e7c3feb100, 2024-10-09)"
   sodipodi:docname="logo.svg"
   xmlns:inkscape="http://www.inkscape.org/namespaces/inkscape"
   xmlns:sodipodi="http://sodipodi.sourceforge.net/DTD/sodipodi-0.dtd"
   xmlns="http://www.w3.org/2000/svg"
   xmlns:svg="http://www.w3.org/2000/svg"><sodipodi:namedview
     id="namedview1"
     pagecolor="#505050"
     bordercolor="#eeeeee"
     borderopacity="1"
     inkscape:showpageshadow="0"
     inkscape:pageopacity="0"
     inkscape:pagecheckerboard="0"
     inkscape:deskcolor="#505050"
     inkscape:document-units="mm"
     inkscape:zoom="0.62589999"
     inkscape:cx="186.93082"
     inkscape:cy="432.17767"
     inkscape:window-width="1652"
     inkscape:window-height="960"
     inkscape:window-x="0"
     inkscape:window-y="0"
     inkscape:window-maximized="1"
     inkscape:current-layer="layer1" /><defs
     id="defs1"><filter
       style="color-interpolation-filters:sRGB;"
       inkscape:label="Drop Shadow"
       id="filter7"
       x="-0.17606351"
       y="-0.1407162"
       width="1.352127"
       height="1.2814324"><feFlood
         result="flood"
         in="SourceGraphic"
         flood-opacity="1.000000"
         flood-color="rgb(0,0,0)"
         id="feFlood6" /><feGaussianBlur
         result="blur"
         in="SourceGraphic"
         stdDeviation="5.964590"
         id="feGaussianBlur6" /><feOffset
         result="offset"
         in="blur"
         dx="0.000000"
         dy="0.000000"
         id="feOffset6" /><feComposite
         result="comp1"
         operator="in"
         in="flood"
         in2="offset"
         id="feComposite6" /><feComposite
         result="comp2"
         operator="over"
         in="SourceGraphic"
         in2="comp1"
         id="feComposite7" /></filter></defs><g
     inkscape:label="Layer 1"
     inkscape:groupmode="layer"
     id="layer1"><g
       id="g3"
       inkscape:label="leaf"
       transform="matrix(1.0323035,0,0,1.0600656,-3.2732189,-6.7196138)"><path
         style="fill:#a0e055;stroke-width:0.268503"
         d="M 197.5177,133.03045 C 182.9814,171.91733 145.48087,203.21764 103.055,204.13474 74.409033,205.68186 44.29843,201.58021 19.482788,186.40133 8.6985673,176.4989 5.4837778,161.06599 3.7237733,147.07693 0.29652897,116.60322 12.927766,75.063097 38.066482,57.194074 60.540888,40.774913 93.672504,39.149745 120.53796,34.68141 c 21.45641,-4.512738 39.44683,-6.703695 53.4178,-24.501905 2.1507,-2.7665779 4.22792,-3.8590764 6.18353,-3.840404 5.38017,0.05137 9.84001,8.5129 12.37789,13.66336 14.16381,27.062274 16.7262,59.14089 11.74417,88.932299 -1.50666,8.21479 -3.74034,16.30072 -6.74365,24.09569 z"
         id="path7"
         sodipodi:nodetypes="cccccccsccc" /><path
         style="fill:#4f9e1e;fill-opacity:1;stroke-width:0.269;stroke-dasharray:none"
         d="M 197.5177,133.03045 C 182.9814,171.91733 145.48087,203.21764 103.055,204.13474 74.409033,205.68186 44.29843,201.58021 19.482788,186.40133 94.617555,159.08665 168.79942,128.4919 180.07438,6.9881868 c 0.14163,-1.5262659 3.05572,0.062769 4.41592,1.1715532 1.65823,1.3517201 3.17102,3.315111 4.49641,5.399127 1.4036,2.206982 2.59703,4.549246 3.53047,6.443594 14.16381,27.062274 16.7262,59.14089 11.74417,88.932299 -1.50666,8.21479 -3.74034,16.30072 -6.74365,24.09569 z"
         id="path3"
         sodipodi:nodetypes="cccsssccc" /></g><text
       xml:space="preserve"
       style="font-style:normal;font-variant:normal;font-weight:normal;font-stretch:normal;font-size:169.871px;line-height:0.8em;font-family:Caramella;-inkscape-font-specification:Caramella;text-align:center;writing-mode:lr-tb;direction:ltr;text-anchor:middle;mix-blend-mode:normal;fill:#f9f9f9;fill-opacity:1;fill-rule:evenodd;stroke:#ffffff;stroke-width:5.5250008;stroke-dasharray:none;stroke-opacity:1;paint-order:markers stroke fill;stroke-linecap:butt;stroke-dashoffset:0;filter:url(#filter7)"
       x="99.489838"
       y="171.47092"
       id="text1"
       inkscape:label="letter G"><tspan
         sodipodi:role="line"
         id="tspan1"
         style="font-style:normal;font-variant:normal;font-weight:normal;font-stretch:normal;font-family:Caramella;-inkscape-font-specification:Caramella;fill:#f9f9f9;fill-opacity:1;stroke:#ffffff;stroke-width:5.5250008;stroke-dasharray:none;stroke-opacity:1;fill-rule:evenodd;stroke-linecap:butt;paint-order:markers stroke fill;stroke-dashoffset:0"
         x="99.489838"
         y="171.47092">G</tspan></text></g></svg>
